<svg xmlns="http://www.w3.org/2000/svg" width="200" height="64"><g opacity=".8"><path d="M100.309 29.197c1.239-.197 2.42-.352 3.332-1.146.934-.815 1.359-1.998 1.511-3.228.266-2.06-.268-4.229-2.064-5.278-1.156-.676-2.639-.805-4.14-.805-.205.112-.605-.044-.772.136-.176 0-.64-.012-.783.124-.104 0-.208 0-.274.099-.672 0-1.565.548-2.04.991-.176.167-.293.405-.51.527 0 .194-.272.601-.422.718 0 .08-.027.143-.08.193 0 .11-.067.235-.138.303 0 .169-.049.321-.143.415 0 .183-.019.51-.136.638l-.05 1.053c.01.708.157 1.404.348 2.063.78 2.601 3.618 3.548 6.36 3.197M104.772 41c2.158-2.323 1.87-7.494-1.25-8.93-1.461-.672-3.087-.7-4.93-.7-.226.192-.718.008-.92.223-.172 0-.446.017-.554.136-.118 0-.354.036-.441.137-.193 0-.5.134-.616.278-.334 0-1.128.655-1.33.936-.176.245-.338.614-.585.799 0 .121-.146.36-.218.446 0 .122-.05.26-.142.334 0 .148-.036.341-.137.44 0 .176-.022.44-.137.552 0 .58-.085 1.191-.056 1.802.052 1.087.4 2.271 1 3.098A5.573 5.573 0 0096 42c.469.222 1 .334 1.529.478 2.313.606 5.68.302 7.243-1.478" opacity=".8"/><path d="M199.571 5.914c-1.023.82-5.228 2.436-5.228 2.436s1.17 2.439 1.196 3.764c0 0-1.305 1.22-5.063 2.005.427 2.743-.56 3.881-.56 3.881-.916 1-3.52 1.32-5.112 1.424 0 3.576-1.001 4.059-1.001 4.059-.506.597-4.575.866-5.955.953-.787 4.008-2.848 4.708-2.848 4.708-1.812.209-4.068.044-6.576-.33-.346 3.445-1.307 3.686-1.307 3.686-1.053.5-7.117.352-7.117.352-.295.016-.556-.028-.92-.082-.726 3.438-1.643 3.593-1.643 3.593s-1.787.48-5.884-.363c-.802-.218-1.248-.087-1.787-.333-.766 2.682-1.7 2.729-1.7 2.729-.96.293-6.224-1.345-6.224-1.345-.616 1.949-2.132 2.458-2.132 2.458-1.33-.057-2.941-.605-3.79-.982-2.729 9.256-11.125 16.557-20.194 20.063l-1.33 2.743-3.23-1.234-1.687 2.548-2.94-1.595-1.991 2.412-2.645-1.927-2.315 2.213-2.325-2.15-2.638 1.902-2-2.417-2.936 1.59L88 60.105l-3.207 1.214-1.369-2.74c-9.783-3.788-18.091-11.032-20.584-21.27 0 0-4.84 1.691-6.18 1.174-.873-.354-1.75-2.373-1.75-2.373s-6.003 1.573-7.29 1.178c-1.374-.427-2.232-3.15-2.232-3.15s-6.91.23-8.11-.3c-1.124-.499-1.65-3.263-1.65-3.263-1.188.319-7.537-.632-8.332-.949C26.504 29.31 24.683 26 24.683 26s-5.93-.613-6.59-1.198c-.39-.34-.952-4.031-.952-4.031S11.505 19.35 11.187 19c-.312-.445-.312-3.602-.312-3.602l-5.638-2.532L6 9.069.24 6.146 0 5.352s2.459-2.766 2.696-3.08c0 0 .398-.323.934-.192 1.104.274 10.26 1.06 18.37.506 5.308-.363 12.36-.474 15.771-.474 3.411 0 17.854.888 21.345.79 3.048-.068 16.998-1.267 22.82.752C87.532 1.246 93.696 0 99.59 0c6.505 0 11.987 1 18.014 3.872 3.716-1.33 9.746-1.497 12.396-1.497 4.2 0 6.426.876 12.166.876 5.738 0 17.936-.876 21.834-.876 3.914 0 13.399.797 18.662.797 5.259 0 13.395-1.172 14.338-.987.356.082 2.902 3.123 2.902 3.123zM84.846 3.612C84 4 84.382 4.768 84.382 4.768s.562.472 1.154.13c.464-.291 6.152-2.432 14.245-2.432 8.094 0 14.653 2.774 15.292 2.9.646.129 1.168-.736.595-1.2-.42-.341-7.668-3.028-15.974-3.028-7.576 0-13.984 2.045-14.848 2.474zm28.385 5.63c-1.074-1.81.57-1.913.362-2.742-.16-.66-6.533-2.933-13.765-2.933-6.47 0-13.407 1.823-13.665 2.216-.6.94.689.902.656 2.217-.04 1.587-1.286 2.657-1.719 3.119-1.648 1.743-3.75 2.63-5.202 4.577-.11.145-.219.8-.07 1.002.382.51 1.283-.054 1.5-.224 3.055-2.383 5.923-3.338 9.388-4.411.86-.27 5.225-1.178 10.857-.937 4.98.213 9.57 1.51 13.567 3.874 1.596.906 3.02 2.066 4.534 3.319.55.461.98-.213 1-.464.02-.29-.217-.7-.367-.944-1.15-1.911-3.686-3.642-5.445-5.698-.862-1.02-1.305-1.387-1.63-1.97zM5.101 6.67c.899.424 3.182 1.652 5.75 1.799 2.309.132 21.649.338 22.064.363 3.99 0 9.727.169 13.705.169 1.58 0 3.02.276 4.58.276.568-.388.025-.665-.391-.794l-2.52-.656C45.929 7.082 43.579 6.62 41 6.26c-1.935-.26-4.26-.539-6.34-.64-3.54.122-8.882.005-10.32-.405-.259-.063-.34-.782.063-.857C25.511 4.05 33 4.128 34 4.128c1.381 0 3.685.145 5 .227 2 .122 3.917.469 5.737.867 2.14.47 3.933.935 6.072 1.44 1.248.338 2.602.338 3.94.478l4.191.01c1.942 0 3.951.075 5.858.133 2.774.086 5.529.035 8.1.5.696.126 1.36.371 2.022.587 1.996.63 4.622 2.277 3.679 4.909-.118.326-1.599 2.125-2.045 2.982-.237.43-.889 2.1-.948 2.909-.134 1.072-.242 1.9.313 2.286.081.06.19.04.31-.026a20.468 20.468 0 011.83-2.218c.225-.6-.45-1.361.164-2.385.449-.827.66-1.56 1.39-2.574.803-1.138 4.035-3.813 4.45-4.253.31-.377.937-1 1.118-1.372.52-.806-.409-1.874-1.032-2.558a5.478 5.478 0 00-1.786-1.303C81.446 4.355 79.264 4.097 78 4c-.926-.155-1.895-.162-2.854-.252-1.54-.147-3.223-.084-4.747-.058L68 3.697c-3.219.148-6.294.359-9.556.359-1.82 0-3.655-.136-5.444-.22-1.775-.082-3.493-.12-5.268-.2-3.455-.166-6.62-.466-10.197-.466-1.054-.047-2.927.024-4.034.042-1.998.035-6.623.235-8.569.387-.381.028-13.298.17-13.298.17-1.803-.079-3.958-.31-5.707-.474C5.1 3.36 4 5.15 3.863 5.627c-.06.148.91.897 1.238 1.042zM73.38 28.097a15.96 15.96 0 011.887-5.153c-.16-.424-1.024-.094-1.46.056-.418.29-.963 1.57-1.292 2.054-.609.895-2.358 1.886-1.185 2.385.868.362 1.67.852 2.05.658zm1.415 9.569c-.795-1.555-1.286-3.202-1.524-4.918-.597-.075-1.836 4.454-1.271 5.103.895.785 2.623.149 2.795-.185zM53.78 12.526c-.047.219-.017.474.115.631.195.232 1.434.768 2.238.63 1.274-.307 2.383-.712 3.568-1.094.412-.12.948-.187 1.244-.513.324-.358.11-.754-.146-1.06-.266-.31-.68-.497-1.067-.406-1.286.396-2.614.59-3.954.839-.525.09-1.215.119-1.641.447-.195.103-.303.31-.357.527zM53.513 10c.487.596 2.064-.065 3.027-.151.65-.059 3.383-.052 3.345-.694-.058-.93-1.995-.639-3.3-.72-1.258-.095-2.055-.172-3.183-.123-.785.033-.282 1.284.111 1.688zm2.867 5.488c-.216.236-.272.512-.195.869.05.22.148.55.304.723.31.352 1.13.68 1.683.68.308-.01.828-.106.982-.185.908-.487 1.846-.972 2.718-1.46.31-.166.71-.215.964-.477.864-.888-.776-2.087-1.512-1.963-1.234.239-2.324.766-3.493 1.155-.48.17-1.096.27-1.45.658zm3.061 4.02c-.18.234-.176.492-.086.8.07.226.134.46.307.633.405.406 1.338.417 1.916.417.165-.063.332-.129.499-.195.324-.163.585-.454.923-.688.588-.475 1.063-.86 1.686-1.36.314-.223 1.046-.406 1.25-.755.525-.904-1.38-1.522-2.002-1.508-.54.025-4.23 2.311-4.493 2.655zm3.868 3.223c-.309.665.149 1.021.583 1.342.4.297 1.625.108 2.168-.297.397-.298 2.94-2.574 3.1-2.842.738-1.3-1.16-1.49-1.986-1.49-.55 0-2.174 1.631-2.746 2.11-.282.233-.975.838-1.119 1.177zm5.005 1.189c-.496.503-1.533 1.368-.649 1.986.335.255.975.464 1.335.347.367-.15.672-.178 1-.417.234-.234.422-.579.61-.836.221-.373.964-1.41 1.15-1.572.383-.337.947-.592.571-1.274-.167-.31-1.592-.537-1.993-.307-.426.246-.952.923-1.338 1.284-.2.264-.442.529-.686.789zm6.485-6.168c.322-1.25 1.201-3.165 1.66-3.919.277-.445.613-.833.74-1.326.01-.037.016-.072.023-.11.073-.56-.282-1.02-.663-1.397-.625-.535-1.47-.884-2.252-1.144C72 9.09 69.528 9 66.881 8.898a109.27 109.27 0 00-5.362-.12c-.348 0-.649.076-.7.422-.066.426-.003 1.104.721 1.122.854.014 1.895-1.117 2.393-.402.564.805-2.35 1.29-1.933 2.269.648 1.25 1.83.105 2 .028.634-.274 2.468-1.902 3.213-.83.66.945-2.351 2.315-2.716 2.764-.103.132-.316.849-.234 1.012.658 1.457 2.32.062 3.434-1.163.414-.443.714-.692 1.128-.8.571-.147 1.07-.034 1.175.476a.714.714 0 01-.161.832c-.233.222-2.839 2.089-2.741 2.646.178 1.132.902 1.281 1.368 1.04.534-.194 2.059-2.808 2.955-2.469.237.092.579.132.579.359.18.311.128.747-.07 1.01-.25.337-.725.78-1.045 1.06-.273.24-.576.523-.739.846-.423.73.205 1.077.854 1.077.29 0 .42-.135.59-.28.41-.359.863-1.956 1.72-1.53.899.45-.764 1.733-.599 2.611.289.677 1.289.815 1.622.312.33-.804.134-2.043.466-3.438zm-61.057-3.398c.582.124 37.423-2.021 37.482-2.03.498-.227 1.85-.6 1.776-1.385-.077-.224-.432-.447-.63-.527-.37-.156-4.955.256-5.293.258-3.129 0-36.622-.48-37.468-.48-.461.173-.663.403-.724.91-.05.37.233 1.224 1.115 1.69.665.293 3.112 1.43 3.742 1.564zm2.466 4.33c1.606.45 3.049.96 4.913.96.122-.01 32.458-4.118 33.046-4.118.084-.082.167-.14.153-.271-.026-.255-1.157-1.188-1.44-1.317-.208-.093-.45-.098-.709-.098-.832.085-6.913.668-9.171.808-1.141.096-21.823 1.352-23.626 1.403-.374.026-4.706-.051-5.16.363-.214.2.026 1.377.252 1.586.42.412 1.19.531 1.742.684zM26.9 24.777c1.74.059 9.453-1.163 10.73-1.478 1.986-.484 17.112-4.54 17.5-4.796.299-.2.054-1.106-.317-1.567-.325-.4-2.252.161-3.084.311-1.806.316-3.606.628-5.412.942-2.853.52-14.078 2.192-16.845 2.5-1.79.198-3.578.404-5.411.55-3.355-.162-3.947.389-3.522 1.28.184.385.365.893.732 1.17.448.311 4.184 1.088 5.63 1.088zm2.244 3.566c.555.821 7.062 1.096 9.955.334 1.171-.341 18.402-6.352 18.755-6.799.362-.462.272-1.611.223-1.82-.077-.53-.637-.607-1.164-.607l-.655.183c-.572.241-13.84 4.366-20.127 5.673-1.815.384-3.651.633-5.522.907-.609.084-1.79.004-2.189.342-.258.231.506 1.444.724 1.787zm18.06 3.933C48.833 31.568 55.73 28 57.55 27c.858-.512 4.626-2.263 4.574-3-.125-1.05-1.85-1-2.825-1-.86 0-3.961 1.812-5.195 2.325C50.645 26.79 47 28 43.425 29.234c-.956.29-1.918.583-2.877.868-.6.169-1.316.265-1.85.56-.157.082-.292.225-.317.406-.054.32.216.57.442.74.275.192.538.435.858.555.5.18 1.083.168 1.669.196 1.366.064 4.08.441 5.853-.283zm8.944 1.895a909 909 0 007.473-5.856c.615-.525 2.623-1.56 2.379-1.995-.233-.495-2.422-.753-3-.568-.627.174-14.819 7.922-15 8.248-.364.557.685 1.407 1.206 1.522.794.17 5.078-.244 6.942-1.351zm2.793 2.672c.129-.012 3.059-.384 4.408-1.169C64 35.311 70 29.247 70.215 29c.085-.14.148-.755.122-.81C70 27.709 69 28 68.445 28A47.103 47.103 0 0067 27.717c-.431-.048-2.692 2.746-8.08 6.502-.463.319-1.514.989-1.744 1.465-.337.927 1.2 1.159 1.765 1.159zm5.985.08c0 .58.889.904 2.14.588.873-.218 2.084-.173 2.878-.511.546-.278 1.47-2.607 2.316-4.235.557-1.075.642-.885.872-1.707l.022-.058-.008-.251c0-.548.029-1.094.09-1.63-.09-.119-.236-.176-.414-.183-.822-.125-1.69.641-2.362 1.57-.46.753-5.53 5.672-5.534 6.416zm18.449 19.336c.138-.012.186-.145.16-.259-.045-.132-.19-.23-.327-.317l-1.987-.93c-1.14-.536-2.221-1.185-3.333-1.874A34.938 34.938 0 0170.938 47c-.938-1.06-1.625-2.164-2.506-3.438-.833-1.197-1.938-3.391-2.217-3.843-.146-.24-.35-.394-.574-.263-.245.085-.16.544-.091.747.12.394 1.697 2.956 2.395 3.984.6.886 1.173 1.813 1.885 2.624 2.692 3.189 5.942 5.942 9.44 7.733.534.268 3.444 1.776 4.105 1.715zm.728-2.172c.585-.141 3.45-4.633 3.747-4.97a.58.58 0 00.094-.49l-.033-.068c-5.63-2.068-10.132-5.612-12.624-9.964-.37-.04-.761.279-1.04.405-.434.284-1.07.579-1.62.447-.868-.206-1.1-1.182-1.836-1.253-.433-.018-3.134.284-3.157 1.108-.029 1.17 2.366 4.001 3.279 5.104 2.733 3.509 6.267 6.207 10.002 8.22.708.374 2.675 1.64 3.188 1.46zm3.066 3.74c.39-.406.743-1.168.955-1.666.625-1.522 2.402-5.286 2.477-5.788.038-.26.116-.653-.073-.982a13.233 13.233 0 01-1.25-.391 1.78 1.78 0 00-.503.467c-.256.366-2.436 3.912-3.32 5.396-.289.501-.665.97-.766 1.495-.077.4.311 1.564.746 1.791.565.27 1.386.036 1.734-.323zm5.17-.66c.378-1.6 1.542-5.589 1.542-6.1-.005-.276.007-.702-.259-1-.38-.067-.76-.13-1.126-.212-.27.145-.496.404-.564.6-.195.4-1.79 4.243-2.43 5.847-.208.542-.502 1.061-.502 1.598 0 .407.525 1.497 1 1.65.564.186 1.37-.182 1.657-.55.343-.5.55-1.306.682-1.833zm4.305.389c.089-1.644.54-5.773.449-6.277-.043-.279-.093-.58-.31-.826a46.74 46.74 0 01-1.272-.118 1.428 1.428 0 00-.44.665c-.122.439-1.071 4.502-1.38 6.193-.103.567-.305 1.13-.23 1.663.056.4.792 1.382 1.29 1.45.588.085 1.319-.417 1.533-.867.237-.51.32-1.346.36-1.883zM97.203 45c1.59.115 3.22 0 4.797 0 .17-.142 1.17-.14 1.446-.14.129-.126.831-.136 1.056-.136.132-.143.57-.142.778-.142.08-.082.231-.088.36-.088.13-.135.441-.136.64-.136.095-.105.348-.136.499-.136.09-.098.329-.143.472-.143.092-.079.354-.136.497-.136.144-.157.559-.272.778-.272.108-.15.307-.172.474-.242.373-.187.759-.376 1.142-.563 1.342-.79 2.548-1.866 3.258-3.253.141-.27.342-.53.342-.868.11-.11.137-.324.137-.495.121-.16.121-.528.121-.775.194-.2.107-.814.103-1.102-.04-2.739-2.18-5.373-4.564-6.373-.045 0-.156 0-.156-.101.174-.12.416-.36.617-.36.206-.262.782-.488 1-.718.611-.471 2-1.821 2-2.51a.697.697 0 00.102-.365c.112-.105.143-.309.143-.47.197-.207.136-.736.136-1.048.177-.19.057-.643.019-.86-.24-1.305-.772-2.398-1.672-3.358-.205-.21-.433-.377-.635-.583-.637-.627-1.47-1.08-2.25-1.468-2.19-1.091-4.74-1.673-7.393-1.797-1.291-.002-2.572-.006-3.855-.006-.186.108-.5.036-.721.062-.962.126-1.874.246-2.874.421-2.677.499-5.271 1.553-7.467 3.055-.533.382-1.197.817-1.64 1.362a.475.475 0 01-.044.069c-.16.264-.44.471-.548.762-.042.117-.082.296-.037.427.15.429.95 1.164 1.35 1.4.197.086.535.347.565.595.042.38-.044.743-.068 1.078-.005.413-.007.905-.007 1.357v9.311c-.006.389-.012.745-.024 1.159-.08.191-.82.927-1.001 1.133-.24.274-.363.62-.56.911-.002.024-.016.041-.025.062.115.108.094.315.174.48.233.348.62.754.989 1 3.006 2.378 7.526 3.67 11.546 4zm3.655 14.513c.142-.513.142-1.38.057-1.916-.165-1.597-.37-5.787-.536-6.27-.085-.23-.193-.571-.46-.784-.18.004-.36.004-.542.004-.197 0-.377 0-.606-.004-.277.217-.405.588-.435.84-.056.439-.336 4.617-.39 6.315-.014.578-.13 1.17.054 1.681.092.39 1 1.237 1.478 1.23.598-.009 1.242-.609 1.38-1.096zm4.484-.395c.087-.56-.06-1.382-.174-1.914-.37-1.6-1.076-5.696-1.3-6.15-.11-.223-.263-.553-.557-.727-.364.043-.73.076-1.1.106-.275.25-.362.656-.362.918 0 .445.254 4.598.383 6.322.052.572.017 1.17.233 1.66.167.37 1.15 1.11 1.641 1.038.592-.08 1.16-.763 1.236-1.253zm3.658.456c.562-.182 1-.974 1-1.484 0-.58-.304-1.387-.518-1.9-.656-1.558-2.104-5.57-2.414-5.991a1.793 1.793 0 00-.37-.434c-.505.11-1.01.235-1.53.298a.937.937 0 00-.087.8c.08.448 1.082 4.598 1.518 6.318.158.57.229 1.182.539 1.637.233.349 1.354.918 1.862.756zm4.325-1.144c.555-.258.905-1.096.837-1.6-.085-.574-.482-1.337-.752-1.83-.841-1.456-2.772-5.264-3.13-5.644-.126-.13-.28-.356-.488-.43-.449.15-.91.285-1.373.414-.136.314-.1.66-.028.913.135.436 1.609 4.434 2.28 6.088.226.548.329 1.145.731 1.56.275.316 1.46.744 1.923.529zm1.015-4.576c.141.146.344.208.567.208l.717-.281c.846-.35 1.695-.781 2.494-1.195 3.716-2.063 7.043-4.491 9.725-8.08 1.53-2.045 2.895-3.952 2.917-4.401-.038-.546-2.269-1.368-2.579-1.244-.57.26-.867 1.139-1.596 1.366-.696.192-1.408-.087-1.972-.363-.325-.16-1.07-.797-1.495-.68-2.522 4.033-6.794 7.32-12.118 9.308-.061.176-.092.43 0 .577.155.184 3.053 4.49 3.34 4.785zm27.525-42.619c-1.35-.235-2.732-.466-3.134-.492a1.049 1.049 0 00-.977.672c-.134.361-.18.853.133 1.103.325.259.828.33 1.235.482a29.87 29.87 0 011.964.46c.758.185 1.387.29 2.264.377.65.064 1.265-.086 1.441-.627.209-.628.125-1.048-.367-1.326-.23-.129-1.177-.396-2.559-.649zM139 8.832c-.052.93 2.62.74 3.271.799.966.087 2.847.78 3.207.459.435-.386.898-2.218.117-2.253-1.133-.047-1.595.08-2.822.163-1.299.092-3.708-.074-3.773.832zM140.436 15c-1.189-.41-3.067-1-3.436-.877-.483.168-1.658.806-1.152 1.374.152.23.841.446 1.152.503.305.184.282.226.62.374.38.176.76.353 1.14.526.71.345 1.088.72 1.982.72 1.053-.023 1.525.138 2.047-.855.141-.258.047-.546-.103-.765-.247-.296-1.686-.802-2.25-1zm-12.55 20.792c.254.42.465.836.863 1.208.795.678 2.61 1.11 3.777 1.11l.195-.025c.279-.25.376-.52.163-.883l-1.15-1.478-2.51-3.36-1.082-1.52c-.21-.317-.357-.701-.651-.956-.355-.312-1.229-.511-1.742-.511-.08.012-.139.087-.181.199.028.424.042.78.042 1.17 0 .254-.006.591-.025.884.014.065.032.122.047.164.125.368.83 1.4 1.027 1.738zm-1.162 3.292c.79-.389-.454-5.52-1.051-5.445a.693.693 0 00-.379.196c-.294 1.492-.836 2.925-1.563 4.289a.26.26 0 00.07.154c.199.258 2.124 1.23 2.923.806zm3.077-18.211c.199.302 3.011 2.595 3.345 2.765.442.225 1.018.212 1.57.212.466-.01 1.427-.399 1.284-1.134 0-.194-.131-.368-.28-.503-.428-.387-.954-.635-1.42-.959-.397-.254-.843-.604-1.24-.87-.363-.273-.68-.477-1.06-.748-.14-.077-.31-.09-.502-.101-.498.138-1.323-.084-1.648.4-.178.26-.215.682-.049.938zm1.534 5.27a.921.921 0 00.453-1.317c-.575-.744-1.358-1.316-2.028-1.984-.325-.322-.63-.791-1.035-.978-.388-.176-.94-.118-1.415-.118-.47.115-1.01.312-.92.937.01.12.746.68 1.026.951.584.633 1.098 1.729 1.902 2.16.56.302 1.387.67 2.017.349zM133 18.61c.23.23 2.404 1.322 3.097 1.764.527.333.903.733 1.632.733.94-.03 1.271-.26 1.504-.398.407-.25.896-.868.544-1.351-.311-.43-.971-.616-1.423-.822-.498-.234-.994-.469-1.495-.703-.334-.166-1.678-.981-2.221-.981-.638.033-1.74.41-1.843 1.217-.028.207.007.417.205.541zm3.54-8.775c.85-.094 1.167-.49 1.106-.906-.055-.336-.402-.343-.646-.413-1.801 0-2.775-.224-4.502-.143-2.58.12-8.616 0-9.946 1.778-.348.464-.388 1.394-.316 1.935.052.309.764 2.065 1.764 3.197 1.854 2.663-.08 5.488.74 6.03.597.467 1.883-.195 1.946-.7.158-.54-1.358-1.897-.738-2.466.81-.747 1.662 1.427 2.24 1.504.624.14 1.569-.712 1.157-1.45-.164-.292-2.04-1.396-1.345-2.272.485-.71 1.411.197 2 .684 1.125.933 1.933.659 2.234-.262.177-.548-3.373-2.125-2.484-3.024.963-.974 3.086 1.508 3.749 1.673.501.159 1.114-.338 1.206-1 .092-.633-3.36-1.79-2.854-2.643.512-.862 1.871.213 2.445.478.21.078.825.452 1.086.438.618 0 .813-.105.902-.754.113-.775-2.386-1.087-1.988-1.87.463-.924 1.704.125 2.245.186zm-10.873 13.458c-.137-.124-1.61-.841-1.935-.188a.498.498 0 00-.042.192 15.837 15.837 0 011.742 5.132c.018.014.028.03.04.042.406.34 2.27-1.1 2.315-1.583.054-.595-.905-1.705-1.274-2.23-.301-.426-.44-1.01-.846-1.365zm7.494 16.975c.132-.321.06-.518-.3-.553-.282.15-1.861 3.073-3.23 5.047a27.722 27.722 0 01-5.55 5.996c-1.77 1.425-3.5 2.462-5.47 3.488-1.235.597-2.788 1.296-3.08 1.541-.39.321-.193.57.263.57a45.1 45.1 0 004.043-1.928c3.849-2.113 7.758-5.605 10.44-9.245 1.154-1.572 2.723-4.506 2.884-4.916zm4.916-2.596c.383-.193 1.333-.227 1.352-.809 0-.023 0-.051-.005-.077-.063-.553-1.086-1.274-1.49-1.654-1.606-1.533-3.21-3.068-4.819-4.602-.334-.34-.67-.677-1.007-1.014-.31-.351-.57-.74-.951-1.042-.506-.408-1.157-.708-1.85-.728-.53.163-1.041.788-.804 1.412.124.334.497.405.74.616.237.226.411.44.585.686 1.082 1.49 2.172 3 3.31 4.443.445.548.862 1.246 1.51 1.67.787.553 2.352 1.099 3.43 1.099zm7.923-.999c.403-.208 1.647-.59 1.438-1.264a.503.503 0 00-.036-.078c-.026-.04-.053-.084-.082-.124-.42-.464-1.053-.7-1.56-1.017a51.475 51.475 0 01-2.76-1.817c-2.32-1.49-4.471-3.2-6.662-4.837C135.529 26.932 135 26 134 25.76a1.531 1.531 0 01-.199-.024c-.044-.004-.09-.004-.136-.004-.05-.003-.09-.003-.14-.003-.142.073-.274.145-.375.272-.15.262-.24.6-.352.883-.111.255-.227.503-.341.754a.688.688 0 00.02.436c.147.29.523.297.79.43.222.113.423.263.612.436 1.709 1.604 3.317 3.296 5.047 4.813.642.57 1.203 1.248 1.934 1.66.586.317 1.296.47 1.956.64 1.023.26 2.017.621 3.184.621zm9.05-2c.403-.247 1.36-1.06 1.068-1.578-.118-.095-.195-.213-.322-.272-.355-.119-.71-.24-1.065-.363-.613-.222-1.23-.46-1.84-.67-1.891-.79-3.757-1.587-5.602-2.468a150.88 150.88 0 01-7.457-3.83c-.763-.433-1.526-.87-2.285-1.307-.063-.016-.129-.032-.193-.053-.058 0-.107-.005-.167-.007-.31.203-1.132.875-1.026 1.25.122.471 1.655 1.176 1.906 1.359 2.342 1.752 4.676 3.49 7.118 5.07 1.344.867 2.71 1.776 4.206 2.335 1.46.547 3.196.736 4.92.736.098-.007.202-.017.305-.023.143-.063.289-.12.435-.178zM164.384 31c.385-.29 1.29-1.223.91-1.703-.358-.44-1.87-.546-2.464-.677-1.3-.283-2.591-.62-3.829-.902-4.615-1.143-9-2.635-13.404-4.117-1.129-.413-2.26-.825-3.388-1.24-.5-.185-.983-.459-1.553-.477-.376.116-1.655.62-1.655.995 0 .544.818.782 1.297.947.362.174.703.33 1.02.5.683.362 1.369.674 2.048 1.08 1.084.544 2.167 1.087 3.25 1.594a49.06 49.06 0 004.805 2.297c1.68.703 3.395 1.527 5.248 1.867 1.572.288 3.396.203 5.13.203.14-.011.281-.018.417-.028l.696-.028c.089-.01.24-.019.36-.026.073-.014.148-.018.223-.03.072-.01.148-.016.223-.028.054-.01.106-.017.163-.028a2.51 2.51 0 01.503-.199zm9.887-5.338c.066-.156.073-.36-.03-.5-.12-.162-.3-.162-.48-.247-.82-.11-1.643-.22-2.468-.332l-4.803-.773c-2.148-.359-4.306-.81-6.41-1.281-3.368-.73-6.676-1.467-9.958-2.308-1.525-.4-3.053-.796-4.58-1.221-.321-.074-.645-.17-.97-.27-.308-.11-.571-.251-.916-.275l-.979.431c-.447.178-1.567.417-1.3 1.114.219.535 5.506 2.093 7.125 2.669 4.218 1.455 7.826 2.696 12.271 3.673 3.228.71 6.67 1.51 10.228 1.51.162-.007.313-.014.454-.025.105-.01.202-.02.308-.026.059-.012.11-.02.167-.028.244-.124.484-.178.714-.335.357-.256.558-.635.835-.942.256-.281.64-.496.792-.834zm6.08-3.242c.413-.278 1.41-1.653.881-2.089-.418-.331-2.69-.279-3.394-.331-2.149-.173-4.286-.433-6.406-.636-3.047-.286-6.074-.822-9.074-1.206-3.56-.457-7.069-1.036-10.571-1.62-1.627-.278-3.258-.538-4.88-.833-.708-.168-1.234-.54-2.029-.54-.317.119-.695.282-.616.72.054.314.19.813.452 1.012.446.343 1.448.476 2.02.624 1.586.41 3.18.817 4.769 1.222 2.348.602 4.715 1.099 7.104 1.66 2.889.684 5.876 1.284 8.852 1.764 1.638.26 3.282.556 4.97.773.87.11 1.716.27 2.632.27a7.3 7.3 0 00.254-.028l.473-.026c.11-.01.213-.017.333-.029.08-.009.163-.016.247-.028.123-.007.245-.016.36-.026.125-.01.273-.02.362-.073h.91c.06 0 .145-.055.227-.064.082-.012.164-.02.251-.03l.217-.026c.058-.008.113-.02.171-.029.054-.01.134-.016.134-.028.09-.01.144-.016.195-.028.059-.007.113-.019.172-.028.327-.15.633-.143.983-.347zM187 16c0-.218.138-.55 0-.763-.215-.237-.473-.237-.727-.237h-3.994c-1.815-.066-3.622-.134-5.442-.199-6.723-.313-13.399-.801-20.059-1.276-2.256-.174-4.513-.347-6.778-.525-.927-.07-2.234-.248-3.21-.248-.152.068-.305.112-.428.248-.416.412-.517 1.108.29 1.108.348-.108 1.21.035 1.525.084.586.087 1.169.178 1.749.27l7.074 1.11c2.849.428 5.707.937 8.6 1.255 2.032.225 4.054.58 6.105.775 3.164.3 6.295.743 9.631.743.202-.007.407-.02.61-.026.117-.014.239-.02.36-.026.081-.014.17-.02.253-.03l.275-.03c.099-.008.166-.017.303-.024.087-.014.167-.019.251-.028.066-.014.13-.02.19-.03.06-.008.114-.019.172-.026l.163-.028c.087-.01.087-.017.169-.028.303-.069.607-.157.918-.237 1-.323 1.588-.766 2-1.832zm4.499-4.228c.501-.41-.07-1.897-.499-2.17-.33-.186-4.052-.098-4.393-.079-1.363.003-2.722.007-4.08.007-2.323.108-4.815.042-7.212.08-3.157.049-10.426.108-10.795.136H160c-2.565 0-4.828-.01-7.391-.01-.435.02-3.033.09-3.853.085-.366-.01-1.03-.054-1.394 0-.606.093-1.595 1.365-.362 1.365 0-.011.066-.021.122-.028.12-.017.24-.035.362-.056.334-.102.77.021 1.11.047.635.044 1.276.093 1.913.138 1.676.115 3.35.227 5.022.344 1.2.096 2.406.197 3.608.29 8.798.554 17.491 1.338 26.61 1.338 2.109 0 3.991-.92 4.654-1.131.282-.128.875-.128 1.098-.356zm1.682-4.987c.764-.288 2.464-.785 2.474-1.106.013-.54-1.348-1.885-1.809-2.12-.333-.17-.71-.17-1.135-.17l-3.359.309c-2.227.178-4.488.426-6.742.57-1.206.072-2.428.018-3.61.044-.452-.07-1-.13-1.58-.176-2.805-.216-8.352-.443-8.961-.478-1.237-.077-9.615-.182-12.362.052-1.792.15-3.557.29-5.23.29-3.755.23-7.479.47-11.348.41-2.658-.037-5.157-.513-7.715-.712a52.82 52.82 0 00-4.047-.143c-1.256.026-2.934.225-3.62.293-2.07.27-5.565.887-7.055 1.499-.553.225-1.23.653-1.587.93-.6.475-1.157 1.037-.933 1.963.115.463.247.7.528 1.08.323.428.678.786.995 1.22.769.87 1.57 1.815 2.436 2.527 1.479 1.216 3.479 3.766 3.662 5.099.108.672-1.067 1.396-.66 1.925.04.047.128.173.242.33.347.429.674.871.982 1.321.059.066.103.115.129.133.257.125.745-.704.76-.875l.225-1.19c0-.934-.252-1.87-.658-2.614a166.405 166.405 0 01-1.798-3.436c-.23-.41-.456-.974-.694-1.384-.711-1.902.341-2.904 1.93-3.717A9.93 9.93 0 01125 7.816c.33-.059 2.22-.537 6.586-.53h7.848c.83-.007 3.324-.187 6.69-.911 1.814-.375 14.436-2.841 20.08-2.178.397.049.5.695 0 .803-.858.297-3.392.377-8.655 1-3.164.429-5.968 1.096-8.764 1.644-.237.045-.992.216-.895.58.11.338.703.224 1.009.224.101-.007 2.405-.201 3.968-.33C154 8.052 156.538 8 156.92 8h5.436l.644-.075h9.509c.122-.013 2.2-.046 2.607-.046 1.82 0 3.613-.042 5.44-.042 1.643 0 6.444-.127 6.744-.137.7 0 2.252-.016 2.482-.023.218.005 1.218-.005 1.33-.056.22-.07 1.5-.621 2.07-.836z" opacity=".8"/></g></svg>