<svg xmlns="http://www.w3.org/2000/svg" width="30" height="40" viewBox="0 0 30 40"><defs><clipPath id="4kq0a"><path fill="#fff" d="M0 15C0 4 6.716 0 15 0c8.284 0 15 4 15 15S15.517 40 15.517 40 0 26 0 15zm15 4.31c2.74 0 5-2.161 5-4.827s-2.26-4.828-5-4.828c-2.776 0-5 2.162-5 4.828 0 2.666 2.224 4.827 5 4.827z"/></clipPath></defs><g><g><path fill="none" stroke="#fff" stroke-miterlimit="20" stroke-width="6" d="M0 15C0 4 6.716 0 15 0c8.284 0 15 4 15 15S15.517 40 15.517 40 0 26 0 15zm15 4.31c2.74 0 5-2.161 5-4.827s-2.26-4.828-5-4.828c-2.776 0-5 2.162-5 4.828 0 2.666 2.224 4.827 5 4.827z" clip-path="url(&quot;#4kq0a&quot;)"/></g></g></svg>